<svg xmlns="http://www.w3.org/2000/svg" viewBox="0 0 500 500" width="500" height="500" preserveAspectRatio="xMidYMid meet" style="width: 100%; height: 100%; transform: translate3d(0px, 0px, 0px);"><defs><clipPath id="__lottie_element_2"><rect width="500" height="500" x="0" y="0"></rect></clipPath><filter id="__lottie_element_4" filterUnits="objectBoundingBox" x="0%" y="0%" width="100%" height="100%"><feComponentTransfer in="SourceGraphic"><feFuncA type="table" tableValues="1.0 0.0"></feFuncA></feComponentTransfer></filter><mask id="__lottie_element_3" mask-type="alpha"><g filter="url(#__lottie_element_4)"><rect width="500" height="500" x="0" y="0" fill="#ffffff" opacity="0"></rect><g style="display: block;" transform="matrix(7,0,0,7,249.5,275.5)" opacity="1"><path fill="rgb(255,255,255)" fill-opacity="1" d=" M-7.45,-11.45 C-7.45,-11.45 7.55,-11.45 7.55,-11.45 M-7.45,-7.25 C-7.45,-7.25 7.55,-7.25 7.55,-7.25 M-7.45,-3.05 C-7.45,-3.05 7.55,-3.05 7.55,-3.05 M-7.45,0.85 C-7.45,0.85 7.55,0.85 7.55,0.85 M-7.45,5.05 C-7.45,5.05 7.55,5.05 7.55,5.05 M-7.45,9.25 C-7.45,9.25 7.55,9.25 7.55,9.25 M-9.5,15.5 C-9.5,15.5 -12.5,15.5 -12.5,15.5 C-12.5,15.5 -12.5,-15.5 -12.5,-15.5 C-12.5,-15.5 12.5,-15.5 12.5,-15.5 C12.5,-15.5 12.5,15.5 12.5,15.5 C12.5,15.5 2.499000072479248,15.5 2.499000072479248,15.5 C2.499000072479248,15.5 -9.5,15.5 -9.5,15.5z"></path><g opacity="1" transform="matrix(1,0,0,1,1.3000000715255737,0)"><g opacity="1" transform="matrix(1,0,0,1,0,0)"><g opacity="1" transform="matrix(1,0,0,1,-1.2480000257492065,-11.449999809265137)"><path stroke-linecap="round" stroke-linejoin="round" fill-opacity="0" stroke="rgb(55,105,168)" stroke-opacity="1" stroke-width="1.5" d=" M-7.5,0 C-7.5,0 7.5,0 7.5,0"></path></g><g opacity="1" transform="matrix(1,0,0,1,-1.2480000257492065,-7.25)"><path stroke-linecap="round" stroke-linejoin="round" fill-opacity="0" stroke="rgb(55,105,168)" stroke-opacity="1" stroke-width="1.5" d=" M-7.5,0 C-7.5,0 7.5,0 7.5,0"></path></g><g opacity="1" transform="matrix(1,0,0,1,-1.2480000257492065,-3.049999952316284)"><path stroke-linecap="round" stroke-linejoin="round" fill-opacity="0" stroke="rgb(55,105,168)" stroke-opacity="1" stroke-width="1.5" d=" M-7.5,0 C-7.5,0 7.5,0 7.5,0"></path></g></g><g opacity="1" transform="matrix(1,0,0,1,0,12.300000190734863)"><g opacity="1" transform="matrix(1,0,0,1,-1.2480000257492065,-11.449999809265137)"><path stroke-linecap="round" stroke-linejoin="round" fill-opacity="0" stroke="rgb(55,105,168)" stroke-opacity="1" stroke-width="1.5" d=" M-7.5,0 C-7.5,0 7.5,0 7.5,0"></path></g><g opacity="1" transform="matrix(1,0,0,1,-1.2480000257492065,-7.25)"><path stroke-linecap="round" stroke-linejoin="round" fill-opacity="0" stroke="rgb(55,105,168)" stroke-opacity="1" stroke-width="1.5" d=" M-7.5,0 C-7.5,0 7.5,0 7.5,0"></path></g><g opacity="1" transform="matrix(1,0,0,1,-1.2480000257492065,-3.049999952316284)"><path stroke-linecap="round" stroke-linejoin="round" fill-opacity="0" stroke="rgb(55,105,168)" stroke-opacity="1" stroke-width="1.5" d=" M-7.5,0 C-7.5,0 7.5,0 7.5,0"></path></g></g></g><g opacity="1" transform="matrix(1,0,0,1,0,0)"><path stroke-linecap="round" stroke-linejoin="round" fill-opacity="0" stroke="rgb(55,105,168)" stroke-opacity="1" stroke-width="1.5" d=" M-9.5,15.5 C-9.5,15.5 -12.5,15.5 -12.5,15.5 C-12.5,15.5 -12.5,-15.5 -12.5,-15.5 C-12.5,-15.5 12.5,-15.5 12.5,-15.5 C12.5,-15.5 12.5,15.5 12.5,15.5 C12.5,15.5 2.499000072479248,15.5 2.499000072479248,15.5 C2.499000072479248,15.5 -9.5,15.5 -9.5,15.5z"></path></g></g></g></mask><filter id="__lottie_element_17" filterUnits="objectBoundingBox" x="0%" y="0%" width="100%" height="100%"><feComponentTransfer in="SourceGraphic"><feFuncA type="table" tableValues="1.0 0.0"></feFuncA></feComponentTransfer></filter><mask id="__lottie_element_16" mask-type="alpha"><g filter="url(#__lottie_element_17)"><rect width="500" height="500" x="0" y="0" fill="#ffffff" opacity="0"></rect><g style="display: none;" transform="matrix(7,0,0,7,878.7198486328125,723.1500244140625)" opacity="1"><path fill="rgb(255,255,255)" fill-opacity="1" d=" M-85.05,-48.45 C-85.05,-48.45 -88.05,-48.45 -88.05,-48.45 C-88.05,-48.45 -88.05,-79.45 -88.05,-79.45 C-88.05,-79.45 -63.05,-79.45 -63.05,-79.45 C-63.05,-79.45 -63.05,-48.45 -63.05,-48.45 C-63.05,-48.45 -73.05,-48.45 -73.05,-48.45 C-73.05,-48.45 -85.05,-48.45 -85.05,-48.45z M-83.05,-70.45 C-83.05,-70.45 -68.05,-70.45 -68.05,-70.45 M-83.05,-74.45 C-83.05,-74.45 -75.05,-74.45 -75.05,-74.45 M-83.05,-66.45 C-83.05,-66.45 -68.05,-66.45 -68.05,-66.45"></path><g opacity="1" transform="matrix(1,0,0,1,-75.5479965209961,-63.95000076293945)"><path stroke-linecap="round" stroke-linejoin="round" fill-opacity="0" stroke="rgb(55,105,168)" stroke-opacity="1" stroke-width="1.5" d=" M-9.5,15.5 C-9.5,15.5 -12.5,15.5 -12.5,15.5 C-12.5,15.5 -12.5,-15.5 -12.5,-15.5 C-12.5,-15.5 12.5,-15.5 12.5,-15.5 C12.5,-15.5 12.5,15.5 12.5,15.5 C12.5,15.5 2.499000072479248,15.5 2.499000072479248,15.5 C2.499000072479248,15.5 -9.5,15.5 -9.5,15.5z"></path></g><g opacity="1" transform="matrix(1,0,0,1,-75.5479965209961,-70.44999694824219)"><path stroke-linecap="round" stroke-linejoin="round" fill-opacity="0" stroke="rgb(55,105,168)" stroke-opacity="1" stroke-width="1.5" d=" M-7.5,0 C-7.5,0 7.5,0 7.5,0"></path></g><g opacity="1" transform="matrix(1,0,0,1,-79.0479965209961,-74.44999694824219)"><path stroke-linecap="round" stroke-linejoin="round" fill-opacity="0" stroke="rgb(55,105,168)" stroke-opacity="1" stroke-width="1.5" d=" M-4,0 C-4,0 4,0 4,0"></path></g><g opacity="1" transform="matrix(1,0,0,1,-75.5479965209961,-66.44999694824219)"><path stroke-linecap="round" stroke-linejoin="round" fill-opacity="0" stroke="rgb(55,105,168)" stroke-opacity="1" stroke-width="1.5" d=" M-7.5,0 C-7.5,0 7.5,0 7.5,0"></path></g></g></g></mask><filter id="__lottie_element_24" filterUnits="objectBoundingBox" x="0%" y="0%" width="100%" height="100%"><feComponentTransfer in="SourceGraphic"><feFuncA type="table" tableValues="1.0 0.0"></feFuncA></feComponentTransfer></filter><mask id="__lottie_element_23" mask-type="alpha"><g filter="url(#__lottie_element_24)"><rect width="500" height="500" x="0" y="0" fill="#ffffff" opacity="0"></rect><g transform="matrix(7,0,0,7,151.76416015625,275.5)" opacity="1" style="display: none;"><path fill="rgb(255,255,255)" fill-opacity="1" d=" M-7.45,-11.45 C-7.45,-11.45 7.55,-11.45 7.55,-11.45 M-7.45,-7.25 C-7.45,-7.25 7.55,-7.25 7.55,-7.25 M-7.45,-3.05 C-7.45,-3.05 7.55,-3.05 7.55,-3.05 M-7.45,0.85 C-7.45,0.85 7.55,0.85 7.55,0.85 M-7.45,5.05 C-7.45,5.05 7.55,5.05 7.55,5.05 M-7.45,9.25 C-7.45,9.25 7.55,9.25 7.55,9.25 M-9.5,15.5 C-9.5,15.5 -12.5,15.5 -12.5,15.5 C-12.5,15.5 -12.5,-15.5 -12.5,-15.5 C-12.5,-15.5 12.5,-15.5 12.5,-15.5 C12.5,-15.5 12.5,15.5 12.5,15.5 C12.5,15.5 2.499000072479248,15.5 2.499000072479248,15.5 C2.499000072479248,15.5 -9.5,15.5 -9.5,15.5z"></path><g opacity="1" transform="matrix(1,0,0,1,1.3000000715255737,0)"><g opacity="1" transform="matrix(1,0,0,1,0,0)"><g opacity="1" transform="matrix(1,0,0,1,-1.2480000257492065,-11.449999809265137)"><path stroke-linecap="round" stroke-linejoin="round" fill-opacity="0" stroke="rgb(55,105,168)" stroke-opacity="1" stroke-width="1.5" d=" M-7.5,0 C-7.5,0 7.5,0 7.5,0"></path></g><g opacity="1" transform="matrix(1,0,0,1,-1.2480000257492065,-7.25)"><path stroke-linecap="round" stroke-linejoin="round" fill-opacity="0" stroke="rgb(55,105,168)" stroke-opacity="1" stroke-width="1.5" d=" M-7.5,0 C-7.5,0 7.5,0 7.5,0"></path></g><g opacity="1" transform="matrix(1,0,0,1,-1.2480000257492065,-3.049999952316284)"><path stroke-linecap="round" stroke-linejoin="round" fill-opacity="0" stroke="rgb(55,105,168)" stroke-opacity="1" stroke-width="1.5" d=" M-7.5,0 C-7.5,0 7.5,0 7.5,0"></path></g></g><g opacity="1" transform="matrix(1,0,0,1,0,12.300000190734863)"><g opacity="1" transform="matrix(1,0,0,1,-1.2480000257492065,-11.449999809265137)"><path stroke-linecap="round" stroke-linejoin="round" fill-opacity="0" stroke="rgb(55,105,168)" stroke-opacity="1" stroke-width="1.5" d=" M-7.5,0 C-7.5,0 7.5,0 7.5,0"></path></g><g opacity="1" transform="matrix(1,0,0,1,-1.2480000257492065,-7.25)"><path stroke-linecap="round" stroke-linejoin="round" fill-opacity="0" stroke="rgb(55,105,168)" stroke-opacity="1" stroke-width="1.5" d=" M-7.5,0 C-7.5,0 7.5,0 7.5,0"></path></g><g opacity="1" transform="matrix(1,0,0,1,-1.2480000257492065,-3.049999952316284)"><path stroke-linecap="round" stroke-linejoin="round" fill-opacity="0" stroke="rgb(55,105,168)" stroke-opacity="1" stroke-width="1.5" d=" M-7.5,0 C-7.5,0 7.5,0 7.5,0"></path></g></g></g><g opacity="1" transform="matrix(1,0,0,1,0,0)"><path stroke-linecap="round" stroke-linejoin="round" fill-opacity="0" stroke="rgb(55,105,168)" stroke-opacity="1" stroke-width="1.5" d=" M-9.5,15.5 C-9.5,15.5 -12.5,15.5 -12.5,15.5 C-12.5,15.5 -12.5,-15.5 -12.5,-15.5 C-12.5,-15.5 12.5,-15.5 12.5,-15.5 C12.5,-15.5 12.5,15.5 12.5,15.5 C12.5,15.5 2.499000072479248,15.5 2.499000072479248,15.5 C2.499000072479248,15.5 -9.5,15.5 -9.5,15.5z"></path></g></g></g></mask><clipPath id="__lottie_element_34"><path d="M0,0 L500,0 L500,500 L0,500z"></path></clipPath></defs><g clip-path="url(#__lottie_element_2)"><g clip-path="url(#__lottie_element_34)" transform="matrix(1,0,0,1,0,0)" opacity="1" style="display: block;"><g transform="matrix(0.9987439513206482,0.05024467036128044,-0.05024467036128044,0.9987439513206482,207.6107635498047,78.8991470336914)" opacity="1" style="display: block;"><g opacity="1" transform="matrix(1,0,0,1,0,0)"><path stroke-linecap="round" stroke-linejoin="round" fill-opacity="0" stroke="rgb(55,105,168)" stroke-opacity="1" stroke-width="1.5" d=" M0,7.176000118255615 C-0.2630000114440918,7.176000118255615 -0.49399998784065247,7.005000114440918 -0.5709999799728394,6.754000186920166 C-0.5709999799728394,6.754000186920166 -2.0209999084472656,2.0239999294281006 -2.0209999084472656,2.0239999294281006 C-2.0209999084472656,2.0239999294281006 -6.75,0.5720000267028809 -6.75,0.5720000267028809 C-7.000999927520752,0.4950000047683716 -7.171999931335449,0.2630000114440918 -7.171999931335449,0.0010000000474974513 C-7.171999931335449,-0.26100000739097595 -7.000999927520752,-0.492000013589859 -6.75,-0.5699999928474426 C-6.75,-0.5699999928474426 -2.0209999084472656,-2.0239999294281006 -2.0209999084472656,-2.0239999294281006 C-2.0209999084472656,-2.0239999294281006 -0.5709999799728394,-6.755000114440918 -0.5709999799728394,-6.755000114440918 C-0.49399998784065247,-7.00600004196167 -0.2630000114440918,-7.176000118255615 0,-7.176000118255615 C0.2619999945163727,-7.176000118255615 0.49300000071525574,-7.00600004196167 0.5699999928474426,-6.755000114440918 C0.5699999928474426,-6.755000114440918 2.0209999084472656,-2.0239999294281006 2.0209999084472656,-2.0239999294281006 C2.0209999084472656,-2.0239999294281006 6.750999927520752,-0.5699999928474426 6.750999927520752,-0.5699999928474426 C7.000999927520752,-0.492000013589859 7.171999931335449,-0.26100000739097595 7.171999931335449,0.0010000000474974513 C7.171999931335449,0.2630000114440918 7.000999927520752,0.4950000047683716 6.75,0.5720000267028809 C6.75,0.5720000267028809 2.0209999084472656,2.0239999294281006 2.0209999084472656,2.0239999294281006 C2.0209999084472656,2.0239999294281006 0.5699999928474426,6.754000186920166 0.5699999928474426,6.754000186920166 C0.49399998784065247,7.005000114440918 0.2619999945163727,7.176000118255615 0,7.176000118255615z M-4.543000221252441,0 C-4.543000221252441,0 -1.3680000305175781,0.9750000238418579 -1.3680000305175781,0.9750000238418579 C-1.1790000200271606,1.0329999923706055 -1.031000018119812,1.1820000410079956 -0.9729999899864197,1.3700000047683716 C-0.9729999899864197,1.3700000047683716 0,4.543000221252441 0,4.543000221252441 C0,4.543000221252441 0.9729999899864197,1.3700000047683716 0.9729999899864197,1.3700000047683716 C1.0299999713897705,1.1820000410079956 1.1790000200271606,1.0329999923706055 1.3680000305175781,0.9750000238418579 C1.3680000305175781,0.9750000238418579 4.543000221252441,0 4.543000221252441,0 C4.543000221252441,0 1.3680000305175781,-0.9760000109672546 1.3680000305175781,-0.9760000109672546 C1.1790000200271606,-1.034999966621399 1.0299999713897705,-1.1820000410079956 0.9729999899864197,-1.371000051498413 C0.9729999899864197,-1.371000051498413 0,-4.544000148773193 0,-4.544000148773193 C0,-4.544000148773193 -0.9729999899864197,-1.371000051498413 -0.9729999899864197,-1.371000051498413 C-1.031000018119812,-1.1820000410079956 -1.1779999732971191,-1.034999966621399 -1.3680000305175781,-0.9760000109672546 C-1.3680000305175781,-0.9760000109672546 -4.543000221252441,0 -4.543000221252441,0z"></path></g></g><g transform="matrix(0.9949580430984497,-0.10036242008209229,0.10036242008209229,0.9949580430984497,401.5101013183594,156.50787353515625)" opacity="1" style="display: block;"><g opacity="1" transform="matrix(1,0,0,1,0,0)"><path stroke-linecap="round" stroke-linejoin="round" fill-opacity="0" stroke="rgb(55,105,168)" stroke-opacity="1" stroke-width="1.5" d=" M0,7.176000118255615 C-0.2630000114440918,7.176000118255615 -0.49399998784065247,7.005000114440918 -0.5709999799728394,6.754000186920166 C-0.5709999799728394,6.754000186920166 -2.0209999084472656,2.0239999294281006 -2.0209999084472656,2.0239999294281006 C-2.0209999084472656,2.0239999294281006 -6.75,0.5720000267028809 -6.75,0.5720000267028809 C-7.000999927520752,0.4950000047683716 -7.171999931335449,0.2630000114440918 -7.171999931335449,0.0010000000474974513 C-7.171999931335449,-0.26100000739097595 -7.000999927520752,-0.492000013589859 -6.75,-0.5699999928474426 C-6.75,-0.5699999928474426 -2.0209999084472656,-2.0239999294281006 -2.0209999084472656,-2.0239999294281006 C-2.0209999084472656,-2.0239999294281006 -0.5709999799728394,-6.755000114440918 -0.5709999799728394,-6.755000114440918 C-0.49399998784065247,-7.00600004196167 -0.2630000114440918,-7.176000118255615 0,-7.176000118255615 C0.2619999945163727,-7.176000118255615 0.49300000071525574,-7.00600004196167 0.5699999928474426,-6.755000114440918 C0.5699999928474426,-6.755000114440918 2.0209999084472656,-2.0239999294281006 2.0209999084472656,-2.0239999294281006 C2.0209999084472656,-2.0239999294281006 6.750999927520752,-0.5699999928474426 6.750999927520752,-0.5699999928474426 C7.000999927520752,-0.492000013589859 7.171999931335449,-0.26100000739097595 7.171999931335449,0.0010000000474974513 C7.171999931335449,0.2630000114440918 7.000999927520752,0.4950000047683716 6.75,0.5720000267028809 C6.75,0.5720000267028809 2.0209999084472656,2.0239999294281006 2.0209999084472656,2.0239999294281006 C2.0209999084472656,2.0239999294281006 0.5699999928474426,6.754000186920166 0.5699999928474426,6.754000186920166 C0.49399998784065247,7.005000114440918 0.2619999945163727,7.176000118255615 0,7.176000118255615z M-4.543000221252441,0 C-4.543000221252441,0 -1.3680000305175781,0.9750000238418579 -1.3680000305175781,0.9750000238418579 C-1.1790000200271606,1.0329999923706055 -1.031000018119812,1.1820000410079956 -0.9729999899864197,1.3700000047683716 C-0.9729999899864197,1.3700000047683716 0,4.543000221252441 0,4.543000221252441 C0,4.543000221252441 0.9729999899864197,1.3700000047683716 0.9729999899864197,1.3700000047683716 C1.0299999713897705,1.1820000410079956 1.1790000200271606,1.0329999923706055 1.3680000305175781,0.9750000238418579 C1.3680000305175781,0.9750000238418579 4.543000221252441,0 4.543000221252441,0 C4.543000221252441,0 1.3680000305175781,-0.9760000109672546 1.3680000305175781,-0.9760000109672546 C1.1790000200271606,-1.034999966621399 1.0299999713897705,-1.1820000410079956 0.9729999899864197,-1.371000051498413 C0.9729999899864197,-1.371000051498413 0,-4.544000148773193 0,-4.544000148773193 C0,-4.544000148773193 -0.9729999899864197,-1.371000051498413 -0.9729999899864197,-1.371000051498413 C-1.031000018119812,-1.1820000410079956 -1.1779999732971191,-1.034999966621399 -1.3680000305175781,-0.9760000109672546 C-1.3680000305175781,-0.9760000109672546 -4.543000221252441,0 -4.543000221252441,0z"></path></g></g><g transform="matrix(0.9949580430984497,0.10036242008209229,-0.10036242008209229,0.9949580430984497,123.40556335449219,307.3167724609375)" opacity="1" style="display: block;"><g opacity="1" transform="matrix(1,0,0,1,-45.21900177001953,2.2829999923706055)"><path stroke-linecap="round" stroke-linejoin="round" fill-opacity="0" stroke="rgb(55,105,168)" stroke-opacity="1" stroke-width="1.5" d=" M0,7.176000118255615 C-0.2630000114440918,7.176000118255615 -0.49399998784065247,7.005000114440918 -0.5709999799728394,6.754000186920166 C-0.5709999799728394,6.754000186920166 -2.0209999084472656,2.0239999294281006 -2.0209999084472656,2.0239999294281006 C-2.0209999084472656,2.0239999294281006 -6.75,0.5720000267028809 -6.75,0.5720000267028809 C-7.000999927520752,0.4950000047683716 -7.171999931335449,0.2630000114440918 -7.171999931335449,0.0010000000474974513 C-7.171999931335449,-0.26100000739097595 -7.000999927520752,-0.492000013589859 -6.75,-0.5699999928474426 C-6.75,-0.5699999928474426 -2.0209999084472656,-2.0239999294281006 -2.0209999084472656,-2.0239999294281006 C-2.0209999084472656,-2.0239999294281006 -0.5709999799728394,-6.755000114440918 -0.5709999799728394,-6.755000114440918 C-0.49399998784065247,-7.00600004196167 -0.2630000114440918,-7.176000118255615 0,-7.176000118255615 C0.2619999945163727,-7.176000118255615 0.49300000071525574,-7.00600004196167 0.5699999928474426,-6.755000114440918 C0.5699999928474426,-6.755000114440918 2.0209999084472656,-2.0239999294281006 2.0209999084472656,-2.0239999294281006 C2.0209999084472656,-2.0239999294281006 6.750999927520752,-0.5699999928474426 6.750999927520752,-0.5699999928474426 C7.000999927520752,-0.492000013589859 7.171999931335449,-0.26100000739097595 7.171999931335449,0.0010000000474974513 C7.171999931335449,0.2630000114440918 7.000999927520752,0.4950000047683716 6.75,0.5720000267028809 C6.75,0.5720000267028809 2.0209999084472656,2.0239999294281006 2.0209999084472656,2.0239999294281006 C2.0209999084472656,2.0239999294281006 0.5699999928474426,6.754000186920166 0.5699999928474426,6.754000186920166 C0.49399998784065247,7.005000114440918 0.2619999945163727,7.176000118255615 0,7.176000118255615z M-4.543000221252441,0 C-4.543000221252441,0 -1.3680000305175781,0.9750000238418579 -1.3680000305175781,0.9750000238418579 C-1.1790000200271606,1.0329999923706055 -1.031000018119812,1.1820000410079956 -0.9729999899864197,1.3700000047683716 C-0.9729999899864197,1.3700000047683716 0,4.543000221252441 0,4.543000221252441 C0,4.543000221252441 0.9729999899864197,1.3700000047683716 0.9729999899864197,1.3700000047683716 C1.0299999713897705,1.1820000410079956 1.1790000200271606,1.0329999923706055 1.3680000305175781,0.9750000238418579 C1.3680000305175781,0.9750000238418579 4.543000221252441,0 4.543000221252441,0 C4.543000221252441,0 1.3680000305175781,-0.9760000109672546 1.3680000305175781,-0.9760000109672546 C1.1790000200271606,-1.034999966621399 1.0299999713897705,-1.1820000410079956 0.9729999899864197,-1.371000051498413 C0.9729999899864197,-1.371000051498413 0,-4.544000148773193 0,-4.544000148773193 C0,-4.544000148773193 -0.9729999899864197,-1.371000051498413 -0.9729999899864197,-1.371000051498413 C-1.031000018119812,-1.1820000410079956 -1.1779999732971191,-1.034999966621399 -1.3680000305175781,-0.9760000109672546 C-1.3680000305175781,-0.9760000109672546 -4.543000221252441,0 -4.543000221252441,0z"></path></g></g><g transform="matrix(1.7877461910247803,-0.08993767946958542,0.08993767946958542,1.7877461910247803,302.1252746582031,69.42267608642578)" opacity="1" style="display: block;"><g opacity="1" transform="matrix(1,0,0,1,0,0)"><path stroke-linecap="round" stroke-linejoin="round" fill-opacity="0" stroke="rgb(55,105,168)" stroke-opacity="1" stroke-width="1.5" d=" M0,7.176000118255615 C-0.2630000114440918,7.176000118255615 -0.49399998784065247,7.005000114440918 -0.5709999799728394,6.754000186920166 C-0.5709999799728394,6.754000186920166 -2.0209999084472656,2.0239999294281006 -2.0209999084472656,2.0239999294281006 C-2.0209999084472656,2.0239999294281006 -6.75,0.5720000267028809 -6.75,0.5720000267028809 C-7.000999927520752,0.4950000047683716 -7.171999931335449,0.2630000114440918 -7.171999931335449,0.0010000000474974513 C-7.171999931335449,-0.26100000739097595 -7.000999927520752,-0.492000013589859 -6.75,-0.5699999928474426 C-6.75,-0.5699999928474426 -2.0209999084472656,-2.0239999294281006 -2.0209999084472656,-2.0239999294281006 C-2.0209999084472656,-2.0239999294281006 -0.5709999799728394,-6.755000114440918 -0.5709999799728394,-6.755000114440918 C-0.49399998784065247,-7.00600004196167 -0.2630000114440918,-7.176000118255615 0,-7.176000118255615 C0.2619999945163727,-7.176000118255615 0.49300000071525574,-7.00600004196167 0.5699999928474426,-6.755000114440918 C0.5699999928474426,-6.755000114440918 2.0209999084472656,-2.0239999294281006 2.0209999084472656,-2.0239999294281006 C2.0209999084472656,-2.0239999294281006 6.750999927520752,-0.5699999928474426 6.750999927520752,-0.5699999928474426 C7.000999927520752,-0.492000013589859 7.171999931335449,-0.26100000739097595 7.171999931335449,0.0010000000474974513 C7.171999931335449,0.2630000114440918 7.000999927520752,0.4950000047683716 6.75,0.5720000267028809 C6.75,0.5720000267028809 2.0209999084472656,2.0239999294281006 2.0209999084472656,2.0239999294281006 C2.0209999084472656,2.0239999294281006 0.5699999928474426,6.754000186920166 0.5699999928474426,6.754000186920166 C0.49399998784065247,7.005000114440918 0.2619999945163727,7.176000118255615 0,7.176000118255615z M-4.543000221252441,0 C-4.543000221252441,0 -1.3680000305175781,0.9750000238418579 -1.3680000305175781,0.9750000238418579 C-1.1790000200271606,1.0329999923706055 -1.031000018119812,1.1820000410079956 -0.9729999899864197,1.3700000047683716 C-0.9729999899864197,1.3700000047683716 0,4.543000221252441 0,4.543000221252441 C0,4.543000221252441 0.9729999899864197,1.3700000047683716 0.9729999899864197,1.3700000047683716 C1.0299999713897705,1.1820000410079956 1.1790000200271606,1.0329999923706055 1.3680000305175781,0.9750000238418579 C1.3680000305175781,0.9750000238418579 4.543000221252441,0 4.543000221252441,0 C4.543000221252441,0 1.3680000305175781,-0.9760000109672546 1.3680000305175781,-0.9760000109672546 C1.1790000200271606,-1.034999966621399 1.0299999713897705,-1.1820000410079956 0.9729999899864197,-1.371000051498413 C0.9729999899864197,-1.371000051498413 0,-4.544000148773193 0,-4.544000148773193 C0,-4.544000148773193 -0.9729999899864197,-1.371000051498413 -0.9729999899864197,-1.371000051498413 C-1.031000018119812,-1.1820000410079956 -1.1779999732971191,-1.034999966621399 -1.3680000305175781,-0.9760000109672546 C-1.3680000305175781,-0.9760000109672546 -4.543000221252441,0 -4.543000221252441,0z"></path></g></g><g transform="matrix(1.7877461910247803,0.08993767946958542,-0.08993767946958542,1.7877461910247803,255.02285766601562,431.6662902832031)" opacity="1" style="display: block;"><g opacity="1" transform="matrix(1,0,0,1,0,0)"><path stroke-linecap="round" stroke-linejoin="round" fill-opacity="0" stroke="rgb(55,105,168)" stroke-opacity="1" stroke-width="1.5" d=" M0,7.176000118255615 C-0.2630000114440918,7.176000118255615 -0.49399998784065247,7.005000114440918 -0.5709999799728394,6.754000186920166 C-0.5709999799728394,6.754000186920166 -2.0209999084472656,2.0239999294281006 -2.0209999084472656,2.0239999294281006 C-2.0209999084472656,2.0239999294281006 -6.75,0.5720000267028809 -6.75,0.5720000267028809 C-7.000999927520752,0.4950000047683716 -7.171999931335449,0.2630000114440918 -7.171999931335449,0.0010000000474974513 C-7.171999931335449,-0.26100000739097595 -7.000999927520752,-0.492000013589859 -6.75,-0.5699999928474426 C-6.75,-0.5699999928474426 -2.0209999084472656,-2.0239999294281006 -2.0209999084472656,-2.0239999294281006 C-2.0209999084472656,-2.0239999294281006 -0.5709999799728394,-6.755000114440918 -0.5709999799728394,-6.755000114440918 C-0.49399998784065247,-7.00600004196167 -0.2630000114440918,-7.176000118255615 0,-7.176000118255615 C0.2619999945163727,-7.176000118255615 0.49300000071525574,-7.00600004196167 0.5699999928474426,-6.755000114440918 C0.5699999928474426,-6.755000114440918 2.0209999084472656,-2.0239999294281006 2.0209999084472656,-2.0239999294281006 C2.0209999084472656,-2.0239999294281006 6.750999927520752,-0.5699999928474426 6.750999927520752,-0.5699999928474426 C7.000999927520752,-0.492000013589859 7.171999931335449,-0.26100000739097595 7.171999931335449,0.0010000000474974513 C7.171999931335449,0.2630000114440918 7.000999927520752,0.4950000047683716 6.75,0.5720000267028809 C6.75,0.5720000267028809 2.0209999084472656,2.0239999294281006 2.0209999084472656,2.0239999294281006 C2.0209999084472656,2.0239999294281006 0.5699999928474426,6.754000186920166 0.5699999928474426,6.754000186920166 C0.49399998784065247,7.005000114440918 0.2619999945163727,7.176000118255615 0,7.176000118255615z M-4.543000221252441,0 C-4.543000221252441,0 -1.3680000305175781,0.9750000238418579 -1.3680000305175781,0.9750000238418579 C-1.1790000200271606,1.0329999923706055 -1.031000018119812,1.1820000410079956 -0.9729999899864197,1.3700000047683716 C-0.9729999899864197,1.3700000047683716 0,4.543000221252441 0,4.543000221252441 C0,4.543000221252441 0.9729999899864197,1.3700000047683716 0.9729999899864197,1.3700000047683716 C1.0299999713897705,1.1820000410079956 1.1790000200271606,1.0329999923706055 1.3680000305175781,0.9750000238418579 C1.3680000305175781,0.9750000238418579 4.543000221252441,0 4.543000221252441,0 C4.543000221252441,0 1.3680000305175781,-0.9760000109672546 1.3680000305175781,-0.9760000109672546 C1.1790000200271606,-1.034999966621399 1.0299999713897705,-1.1820000410079956 0.9729999899864197,-1.371000051498413 C0.9729999899864197,-1.371000051498413 0,-4.544000148773193 0,-4.544000148773193 C0,-4.544000148773193 -0.9729999899864197,-1.371000051498413 -0.9729999899864197,-1.371000051498413 C-1.031000018119812,-1.1820000410079956 -1.1779999732971191,-1.034999966621399 -1.3680000305175781,-0.9760000109672546 C-1.3680000305175781,-0.9760000109672546 -4.543000221252441,0 -4.543000221252441,0z"></path></g></g><g transform="matrix(1.7877461910247803,-0.08993767946958542,0.08993767946958542,1.7877461910247803,423.2080078125,396.4775085449219)" opacity="1" style="display: block;"><g opacity="1" transform="matrix(1,0,0,1,0,0)"><path stroke-linecap="round" stroke-linejoin="round" fill-opacity="0" stroke="rgb(55,105,168)" stroke-opacity="1" stroke-width="1.5" d=" M0,7.176000118255615 C-0.2630000114440918,7.176000118255615 -0.49399998784065247,7.005000114440918 -0.5709999799728394,6.754000186920166 C-0.5709999799728394,6.754000186920166 -2.0209999084472656,2.0239999294281006 -2.0209999084472656,2.0239999294281006 C-2.0209999084472656,2.0239999294281006 -6.75,0.5720000267028809 -6.75,0.5720000267028809 C-7.000999927520752,0.4950000047683716 -7.171999931335449,0.2630000114440918 -7.171999931335449,0.0010000000474974513 C-7.171999931335449,-0.26100000739097595 -7.000999927520752,-0.492000013589859 -6.75,-0.5699999928474426 C-6.75,-0.5699999928474426 -2.0209999084472656,-2.0239999294281006 -2.0209999084472656,-2.0239999294281006 C-2.0209999084472656,-2.0239999294281006 -0.5709999799728394,-6.755000114440918 -0.5709999799728394,-6.755000114440918 C-0.49399998784065247,-7.00600004196167 -0.2630000114440918,-7.176000118255615 0,-7.176000118255615 C0.2619999945163727,-7.176000118255615 0.49300000071525574,-7.00600004196167 0.5699999928474426,-6.755000114440918 C0.5699999928474426,-6.755000114440918 2.0209999084472656,-2.0239999294281006 2.0209999084472656,-2.0239999294281006 C2.0209999084472656,-2.0239999294281006 6.750999927520752,-0.5699999928474426 6.750999927520752,-0.5699999928474426 C7.000999927520752,-0.492000013589859 7.171999931335449,-0.26100000739097595 7.171999931335449,0.0010000000474974513 C7.171999931335449,0.2630000114440918 7.000999927520752,0.4950000047683716 6.75,0.5720000267028809 C6.75,0.5720000267028809 2.0209999084472656,2.0239999294281006 2.0209999084472656,2.0239999294281006 C2.0209999084472656,2.0239999294281006 0.5699999928474426,6.754000186920166 0.5699999928474426,6.754000186920166 C0.49399998784065247,7.005000114440918 0.2619999945163727,7.176000118255615 0,7.176000118255615z M-4.543000221252441,0 C-4.543000221252441,0 -1.3680000305175781,0.9750000238418579 -1.3680000305175781,0.9750000238418579 C-1.1790000200271606,1.0329999923706055 -1.031000018119812,1.1820000410079956 -0.9729999899864197,1.3700000047683716 C-0.9729999899864197,1.3700000047683716 0,4.543000221252441 0,4.543000221252441 C0,4.543000221252441 0.9729999899864197,1.3700000047683716 0.9729999899864197,1.3700000047683716 C1.0299999713897705,1.1820000410079956 1.1790000200271606,1.0329999923706055 1.3680000305175781,0.9750000238418579 C1.3680000305175781,0.9750000238418579 4.543000221252441,0 4.543000221252441,0 C4.543000221252441,0 1.3680000305175781,-0.9760000109672546 1.3680000305175781,-0.9760000109672546 C1.1790000200271606,-1.034999966621399 1.0299999713897705,-1.1820000410079956 0.9729999899864197,-1.371000051498413 C0.9729999899864197,-1.371000051498413 0,-4.544000148773193 0,-4.544000148773193 C0,-4.544000148773193 -0.9729999899864197,-1.371000051498413 -0.9729999899864197,-1.371000051498413 C-1.031000018119812,-1.1820000410079956 -1.1779999732971191,-1.034999966621399 -1.3680000305175781,-0.9760000109672546 C-1.3680000305175781,-0.9760000109672546 -4.543000221252441,0 -4.543000221252441,0z"></path></g></g><g transform="matrix(1.780969262123108,-0.17964817583560944,0.17964817583560944,1.780969262123108,70.68955993652344,160.51348876953125)" opacity="1" style="display: block;"><g opacity="1" transform="matrix(1,0,0,1,0,0)"><path stroke-linecap="round" stroke-linejoin="round" fill-opacity="0" stroke="rgb(55,105,168)" stroke-opacity="1" stroke-width="1.5" d=" M0,7.176000118255615 C-0.2630000114440918,7.176000118255615 -0.49399998784065247,7.005000114440918 -0.5709999799728394,6.754000186920166 C-0.5709999799728394,6.754000186920166 -2.0209999084472656,2.0239999294281006 -2.0209999084472656,2.0239999294281006 C-2.0209999084472656,2.0239999294281006 -6.75,0.5720000267028809 -6.75,0.5720000267028809 C-7.000999927520752,0.4950000047683716 -7.171999931335449,0.2630000114440918 -7.171999931335449,0.0010000000474974513 C-7.171999931335449,-0.26100000739097595 -7.000999927520752,-0.492000013589859 -6.75,-0.5699999928474426 C-6.75,-0.5699999928474426 -2.0209999084472656,-2.0239999294281006 -2.0209999084472656,-2.0239999294281006 C-2.0209999084472656,-2.0239999294281006 -0.5709999799728394,-6.755000114440918 -0.5709999799728394,-6.755000114440918 C-0.49399998784065247,-7.00600004196167 -0.2630000114440918,-7.176000118255615 0,-7.176000118255615 C0.2619999945163727,-7.176000118255615 0.49300000071525574,-7.00600004196167 0.5699999928474426,-6.755000114440918 C0.5699999928474426,-6.755000114440918 2.0209999084472656,-2.0239999294281006 2.0209999084472656,-2.0239999294281006 C2.0209999084472656,-2.0239999294281006 6.750999927520752,-0.5699999928474426 6.750999927520752,-0.5699999928474426 C7.000999927520752,-0.492000013589859 7.171999931335449,-0.26100000739097595 7.171999931335449,0.0010000000474974513 C7.171999931335449,0.2630000114440918 7.000999927520752,0.4950000047683716 6.75,0.5720000267028809 C6.75,0.5720000267028809 2.0209999084472656,2.0239999294281006 2.0209999084472656,2.0239999294281006 C2.0209999084472656,2.0239999294281006 0.5699999928474426,6.754000186920166 0.5699999928474426,6.754000186920166 C0.49399998784065247,7.005000114440918 0.2619999945163727,7.176000118255615 0,7.176000118255615z M-4.543000221252441,0 C-4.543000221252441,0 -1.3680000305175781,0.9750000238418579 -1.3680000305175781,0.9750000238418579 C-1.1790000200271606,1.0329999923706055 -1.031000018119812,1.1820000410079956 -0.9729999899864197,1.3700000047683716 C-0.9729999899864197,1.3700000047683716 0,4.543000221252441 0,4.543000221252441 C0,4.543000221252441 0.9729999899864197,1.3700000047683716 0.9729999899864197,1.3700000047683716 C1.0299999713897705,1.1820000410079956 1.1790000200271606,1.0329999923706055 1.3680000305175781,0.9750000238418579 C1.3680000305175781,0.9750000238418579 4.543000221252441,0 4.543000221252441,0 C4.543000221252441,0 1.3680000305175781,-0.9760000109672546 1.3680000305175781,-0.9760000109672546 C1.1790000200271606,-1.034999966621399 1.0299999713897705,-1.1820000410079956 0.9729999899864197,-1.371000051498413 C0.9729999899864197,-1.371000051498413 0,-4.544000148773193 0,-4.544000148773193 C0,-4.544000148773193 -0.9729999899864197,-1.371000051498413 -0.9729999899864197,-1.371000051498413 C-1.031000018119812,-1.1820000410079956 -1.1779999732971191,-1.034999966621399 -1.3680000305175781,-0.9760000109672546 C-1.3680000305175781,-0.9760000109672546 -4.543000221252441,0 -4.543000221252441,0z"></path></g></g><g transform="matrix(1.7877461910247803,0.08993767946958542,-0.08993767946958542,1.7877461910247803,417.09991455078125,248.0194854736328)" opacity="1" style="display: block;"><g opacity="1" transform="matrix(1,0,0,1,0,0)"><path stroke-linecap="round" stroke-linejoin="round" fill-opacity="0" stroke="rgb(55,105,168)" stroke-opacity="1" stroke-width="1.5" d=" M0,7.176000118255615 C-0.2630000114440918,7.176000118255615 -0.49399998784065247,7.005000114440918 -0.5709999799728394,6.754000186920166 C-0.5709999799728394,6.754000186920166 -2.0209999084472656,2.0239999294281006 -2.0209999084472656,2.0239999294281006 C-2.0209999084472656,2.0239999294281006 -6.75,0.5720000267028809 -6.75,0.5720000267028809 C-7.000999927520752,0.4950000047683716 -7.171999931335449,0.2630000114440918 -7.171999931335449,0.0010000000474974513 C-7.171999931335449,-0.26100000739097595 -7.000999927520752,-0.492000013589859 -6.75,-0.5699999928474426 C-6.75,-0.5699999928474426 -2.0209999084472656,-2.0239999294281006 -2.0209999084472656,-2.0239999294281006 C-2.0209999084472656,-2.0239999294281006 -0.5709999799728394,-6.755000114440918 -0.5709999799728394,-6.755000114440918 C-0.49399998784065247,-7.00600004196167 -0.2630000114440918,-7.176000118255615 0,-7.176000118255615 C0.2619999945163727,-7.176000118255615 0.49300000071525574,-7.00600004196167 0.5699999928474426,-6.755000114440918 C0.5699999928474426,-6.755000114440918 2.0209999084472656,-2.0239999294281006 2.0209999084472656,-2.0239999294281006 C2.0209999084472656,-2.0239999294281006 6.750999927520752,-0.5699999928474426 6.750999927520752,-0.5699999928474426 C7.000999927520752,-0.492000013589859 7.171999931335449,-0.26100000739097595 7.171999931335449,0.0010000000474974513 C7.171999931335449,0.2630000114440918 7.000999927520752,0.4950000047683716 6.75,0.5720000267028809 C6.75,0.5720000267028809 2.0209999084472656,2.0239999294281006 2.0209999084472656,2.0239999294281006 C2.0209999084472656,2.0239999294281006 0.5699999928474426,6.754000186920166 0.5699999928474426,6.754000186920166 C0.49399998784065247,7.005000114440918 0.2619999945163727,7.176000118255615 0,7.176000118255615z M-4.543000221252441,0 C-4.543000221252441,0 -1.3680000305175781,0.9750000238418579 -1.3680000305175781,0.9750000238418579 C-1.1790000200271606,1.0329999923706055 -1.031000018119812,1.1820000410079956 -0.9729999899864197,1.3700000047683716 C-0.9729999899864197,1.3700000047683716 0,4.543000221252441 0,4.543000221252441 C0,4.543000221252441 0.9729999899864197,1.3700000047683716 0.9729999899864197,1.3700000047683716 C1.0299999713897705,1.1820000410079956 1.1790000200271606,1.0329999923706055 1.3680000305175781,0.9750000238418579 C1.3680000305175781,0.9750000238418579 4.543000221252441,0 4.543000221252441,0 C4.543000221252441,0 1.3680000305175781,-0.9760000109672546 1.3680000305175781,-0.9760000109672546 C1.1790000200271606,-1.034999966621399 1.0299999713897705,-1.1820000410079956 0.9729999899864197,-1.371000051498413 C0.9729999899864197,-1.371000051498413 0,-4.544000148773193 0,-4.544000148773193 C0,-4.544000148773193 -0.9729999899864197,-1.371000051498413 -0.9729999899864197,-1.371000051498413 C-1.031000018119812,-1.1820000410079956 -1.1779999732971191,-1.034999966621399 -1.3680000305175781,-0.9760000109672546 C-1.3680000305175781,-0.9760000109672546 -4.543000221252441,0 -4.543000221252441,0z"></path></g></g><g transform="matrix(0.7690344452857971,-0.038688477128744125,0.038688477128744125,0.7690344452857971,125.75753021240234,222.50262451171875)" opacity="1" style="display: block;"><g opacity="1" transform="matrix(1,0,0,1,0,0)"><path stroke-linecap="round" stroke-linejoin="round" fill-opacity="0" stroke="rgb(55,105,168)" stroke-opacity="1" stroke-width="1.5" d=" M0,7.176000118255615 C-0.2630000114440918,7.176000118255615 -0.49399998784065247,7.005000114440918 -0.5709999799728394,6.754000186920166 C-0.5709999799728394,6.754000186920166 -2.0209999084472656,2.0239999294281006 -2.0209999084472656,2.0239999294281006 C-2.0209999084472656,2.0239999294281006 -6.75,0.5720000267028809 -6.75,0.5720000267028809 C-7.000999927520752,0.4950000047683716 -7.171999931335449,0.2630000114440918 -7.171999931335449,0.0010000000474974513 C-7.171999931335449,-0.26100000739097595 -7.000999927520752,-0.492000013589859 -6.75,-0.5699999928474426 C-6.75,-0.5699999928474426 -2.0209999084472656,-2.0239999294281006 -2.0209999084472656,-2.0239999294281006 C-2.0209999084472656,-2.0239999294281006 -0.5709999799728394,-6.755000114440918 -0.5709999799728394,-6.755000114440918 C-0.49399998784065247,-7.00600004196167 -0.2630000114440918,-7.176000118255615 0,-7.176000118255615 C0.2619999945163727,-7.176000118255615 0.49300000071525574,-7.00600004196167 0.5699999928474426,-6.755000114440918 C0.5699999928474426,-6.755000114440918 2.0209999084472656,-2.0239999294281006 2.0209999084472656,-2.0239999294281006 C2.0209999084472656,-2.0239999294281006 6.750999927520752,-0.5699999928474426 6.750999927520752,-0.5699999928474426 C7.000999927520752,-0.492000013589859 7.171999931335449,-0.26100000739097595 7.171999931335449,0.0010000000474974513 C7.171999931335449,0.2630000114440918 7.000999927520752,0.4950000047683716 6.75,0.5720000267028809 C6.75,0.5720000267028809 2.0209999084472656,2.0239999294281006 2.0209999084472656,2.0239999294281006 C2.0209999084472656,2.0239999294281006 0.5699999928474426,6.754000186920166 0.5699999928474426,6.754000186920166 C0.49399998784065247,7.005000114440918 0.2619999945163727,7.176000118255615 0,7.176000118255615z M-4.543000221252441,0 C-4.543000221252441,0 -1.3680000305175781,0.9750000238418579 -1.3680000305175781,0.9750000238418579 C-1.1790000200271606,1.0329999923706055 -1.031000018119812,1.1820000410079956 -0.9729999899864197,1.3700000047683716 C-0.9729999899864197,1.3700000047683716 0,4.543000221252441 0,4.543000221252441 C0,4.543000221252441 0.9729999899864197,1.3700000047683716 0.9729999899864197,1.3700000047683716 C1.0299999713897705,1.1820000410079956 1.1790000200271606,1.0329999923706055 1.3680000305175781,0.9750000238418579 C1.3680000305175781,0.9750000238418579 4.543000221252441,0 4.543000221252441,0 C4.543000221252441,0 1.3680000305175781,-0.9760000109672546 1.3680000305175781,-0.9760000109672546 C1.1790000200271606,-1.034999966621399 1.0299999713897705,-1.1820000410079956 0.9729999899864197,-1.371000051498413 C0.9729999899864197,-1.371000051498413 0,-4.544000148773193 0,-4.544000148773193 C0,-4.544000148773193 -0.9729999899864197,-1.371000051498413 -0.9729999899864197,-1.371000051498413 C-1.031000018119812,-1.1820000410079956 -1.1779999732971191,-1.034999966621399 -1.3680000305175781,-0.9760000109672546 C-1.3680000305175781,-0.9760000109672546 -4.543000221252441,0 -4.543000221252441,0z"></path></g></g><g style="display: block;" transform="matrix(0,0.41999998688697815,-0.41999998688697815,0,399.052490234375,100.99950408935547)" opacity="1"><g opacity="1" transform="matrix(0.6087614297866821,-0.7933533191680908,0.7933533191680908,0.6087614297866821,0,0)"><g opacity="1" transform="matrix(1,0,0,1,0,0)"><path fill="rgb(255,255,255)" fill-opacity="1" d="M0 0"></path><path stroke-linecap="round" stroke-linejoin="miter" fill-opacity="0" stroke-miterlimit="4" stroke="rgb(47,52,59)" stroke-opacity="1" stroke-width="14" d="M0 0"></path></g></g><g opacity="1" transform="matrix(-0.4067366123199463,-0.9135454297065735,0.9135454297065735,-0.4067366123199463,0,0)"><g opacity="1" transform="matrix(1,0,0,1,0,0)"><path fill="rgb(255,255,255)" fill-opacity="1" d="M0 0"></path><path stroke-linecap="round" stroke-linejoin="miter" fill-opacity="0" stroke-miterlimit="4" stroke="rgb(47,52,59)" stroke-opacity="1" stroke-width="14" d="M0 0"></path></g></g><g opacity="1" transform="matrix(-0.9969173073768616,-0.07845911383628845,0.07845911383628845,-0.9969173073768616,0,0)"><g opacity="1" transform="matrix(1,0,0,1,0,0)"><path fill="rgb(255,255,255)" fill-opacity="1" d="M0 0"></path><path stroke-linecap="round" stroke-linejoin="miter" fill-opacity="0" stroke-miterlimit="4" stroke="rgb(47,52,59)" stroke-opacity="1" stroke-width="14" d="M0 0"></path></g></g><g opacity="1" transform="matrix(-0.5446390509605408,0.838670551776886,-0.838670551776886,-0.5446390509605408,0,0)"><g opacity="1" transform="matrix(1,0,0,1,0,0)"><path fill="rgb(255,255,255)" fill-opacity="1" d="M0 0"></path><path stroke-linecap="round" stroke-linejoin="miter" fill-opacity="0" stroke-miterlimit="4" stroke="rgb(47,52,59)" stroke-opacity="1" stroke-width="14" d="M0 0"></path></g></g><g opacity="1" transform="matrix(0.4771587550640106,0.8788171410560608,-0.8788171410560608,0.4771587550640106,0,0)"><g opacity="1" transform="matrix(1,0,0,1,0,0)"><path fill="rgb(255,255,255)" fill-opacity="1" d="M0 0"></path><path stroke-linecap="round" stroke-linejoin="miter" fill-opacity="0" stroke-miterlimit="4" stroke="rgb(47,52,59)" stroke-opacity="1" stroke-width="14" d="M0 0"></path></g></g><g opacity="1" transform="matrix(1,0,0,1,0,0)"><g opacity="1" transform="matrix(1,0,0,1,0,0)"><path fill="rgb(255,255,255)" fill-opacity="1" d="M0 0"></path><path stroke-linecap="round" stroke-linejoin="miter" fill-opacity="0" stroke-miterlimit="4" stroke="rgb(47,52,59)" stroke-opacity="1" stroke-width="14" d="M0 0"></path></g></g></g><g transform="matrix(0,0.41999998688697815,-0.41999998688697815,0,372.43548583984375,115.07250213623047)" opacity="1" style="display: none;"><g opacity="1" transform="matrix(0.6087614297866821,-0.7933533191680908,0.7933533191680908,0.6087614297866821,0,0)"><g opacity="1" transform="matrix(1,0,0,1,0,0)"><path fill="rgb(255,255,255)" fill-opacity="1" d="M0 0"></path><path stroke-linecap="round" stroke-linejoin="miter" fill-opacity="0" stroke-miterlimit="4" stroke="rgb(55,105,168)" stroke-opacity="1" stroke-width="14" d="M0 0"></path></g></g><g opacity="1" transform="matrix(-0.4067366123199463,-0.9135454297065735,0.9135454297065735,-0.4067366123199463,0,0)"><g opacity="1" transform="matrix(1,0,0,1,0,0)"><path fill="rgb(255,255,255)" fill-opacity="1" d="M0 0"></path><path stroke-linecap="round" stroke-linejoin="miter" fill-opacity="0" stroke-miterlimit="4" stroke="rgb(55,105,168)" stroke-opacity="1" stroke-width="14" d="M0 0"></path></g></g><g opacity="1" transform="matrix(-0.9969173073768616,-0.07845911383628845,0.07845911383628845,-0.9969173073768616,0,0)"><g opacity="1" transform="matrix(1,0,0,1,0,0)"><path fill="rgb(255,255,255)" fill-opacity="1" d="M0 0"></path><path stroke-linecap="round" stroke-linejoin="miter" fill-opacity="0" stroke-miterlimit="4" stroke="rgb(55,105,168)" stroke-opacity="1" stroke-width="14" d="M0 0"></path></g></g><g opacity="1" transform="matrix(-0.5446390509605408,0.838670551776886,-0.838670551776886,-0.5446390509605408,0,0)"><g opacity="1" transform="matrix(1,0,0,1,0,0)"><path fill="rgb(255,255,255)" fill-opacity="1" d="M0 0"></path><path stroke-linecap="round" stroke-linejoin="miter" fill-opacity="0" stroke-miterlimit="4" stroke="rgb(55,105,168)" stroke-opacity="1" stroke-width="14" d="M0 0"></path></g></g><g opacity="1" transform="matrix(0.4771587550640106,0.8788171410560608,-0.8788171410560608,0.4771587550640106,0,0)"><g opacity="1" transform="matrix(1,0,0,1,0,0)"><path fill="rgb(255,255,255)" fill-opacity="1" d="M0 0"></path><path stroke-linecap="round" stroke-linejoin="miter" fill-opacity="0" stroke-miterlimit="4" stroke="rgb(55,105,168)" stroke-opacity="1" stroke-width="14" d="M0 0"></path></g></g><g opacity="1" transform="matrix(1,0,0,1,0,0)"><g opacity="1" transform="matrix(1,0,0,1,0,0)"><path fill="rgb(255,255,255)" fill-opacity="1" d="M0 0"></path><path stroke-linecap="round" stroke-linejoin="miter" fill-opacity="0" stroke-miterlimit="4" stroke="rgb(55,105,168)" stroke-opacity="1" stroke-width="14" d="M0 0"></path></g></g></g><g style="display: block;" transform="matrix(0,0.75,-0.75,0,101.9227523803711,402.0432434082031)" opacity="1"><g opacity="1" transform="matrix(0.6087614297866821,-0.7933533191680908,0.7933533191680908,0.6087614297866821,0,0)"><g opacity="1" transform="matrix(1,0,0,1,0,0)"><path fill="rgb(255,255,255)" fill-opacity="1" d="M0 0"></path><path stroke-linecap="round" stroke-linejoin="miter" fill-opacity="0" stroke-miterlimit="4" stroke="rgb(47,52,59)" stroke-opacity="1" stroke-width="10" d="M0 0"></path></g></g><g opacity="1" transform="matrix(-0.4067366123199463,-0.9135454297065735,0.9135454297065735,-0.4067366123199463,0,0)"><g opacity="1" transform="matrix(1,0,0,1,0,0)"><path fill="rgb(255,255,255)" fill-opacity="1" d="M0 0"></path><path stroke-linecap="round" stroke-linejoin="miter" fill-opacity="0" stroke-miterlimit="4" stroke="rgb(47,52,59)" stroke-opacity="1" stroke-width="10" d="M0 0"></path></g></g><g opacity="1" transform="matrix(-0.9969173073768616,-0.07845911383628845,0.07845911383628845,-0.9969173073768616,0,0)"><g opacity="1" transform="matrix(1,0,0,1,0,0)"><path fill="rgb(255,255,255)" fill-opacity="1" d="M0 0"></path><path stroke-linecap="round" stroke-linejoin="miter" fill-opacity="0" stroke-miterlimit="4" stroke="rgb(47,52,59)" stroke-opacity="1" stroke-width="10" d="M0 0"></path></g></g><g opacity="1" transform="matrix(-0.5446390509605408,0.838670551776886,-0.838670551776886,-0.5446390509605408,0,0)"><g opacity="1" transform="matrix(1,0,0,1,0,0)"><path fill="rgb(255,255,255)" fill-opacity="1" d="M0 0"></path><path stroke-linecap="round" stroke-linejoin="miter" fill-opacity="0" stroke-miterlimit="4" stroke="rgb(47,52,59)" stroke-opacity="1" stroke-width="10" d="M0 0"></path></g></g><g opacity="1" transform="matrix(0.4771587550640106,0.8788171410560608,-0.8788171410560608,0.4771587550640106,0,0)"><g opacity="1" transform="matrix(1,0,0,1,0,0)"><path fill="rgb(255,255,255)" fill-opacity="1" d="M0 0"></path><path stroke-linecap="round" stroke-linejoin="miter" fill-opacity="0" stroke-miterlimit="4" stroke="rgb(47,52,59)" stroke-opacity="1" stroke-width="10" d="M0 0"></path></g></g><g opacity="1" transform="matrix(1,0,0,1,0,0)"><g opacity="1" transform="matrix(1,0,0,1,0,0)"><path fill="rgb(255,255,255)" fill-opacity="1" d="M0 0"></path><path stroke-linecap="round" stroke-linejoin="miter" fill-opacity="0" stroke-miterlimit="4" stroke="rgb(47,52,59)" stroke-opacity="1" stroke-width="10" d="M0 0"></path></g></g></g><g transform="matrix(0,0.75,-0.75,0,77.9427490234375,389.7012634277344)" opacity="1" style="display: none;"><g opacity="1" transform="matrix(0.6087614297866821,-0.7933533191680908,0.7933533191680908,0.6087614297866821,0,0)"><g opacity="1" transform="matrix(1,0,0,1,0,0)"><path fill="rgb(255,255,255)" fill-opacity="1" d="M0 0"></path><path stroke-linecap="round" stroke-linejoin="miter" fill-opacity="0" stroke-miterlimit="4" stroke="rgb(55,105,168)" stroke-opacity="1" stroke-width="10" d="M0 0"></path></g></g><g opacity="1" transform="matrix(-0.4067366123199463,-0.9135454297065735,0.9135454297065735,-0.4067366123199463,0,0)"><g opacity="1" transform="matrix(1,0,0,1,0,0)"><path fill="rgb(255,255,255)" fill-opacity="1" d="M0 0"></path><path stroke-linecap="round" stroke-linejoin="miter" fill-opacity="0" stroke-miterlimit="4" stroke="rgb(55,105,168)" stroke-opacity="1" stroke-width="10" d="M0 0"></path></g></g><g opacity="1" transform="matrix(-0.9969173073768616,-0.07845911383628845,0.07845911383628845,-0.9969173073768616,0,0)"><g opacity="1" transform="matrix(1,0,0,1,0,0)"><path fill="rgb(255,255,255)" fill-opacity="1" d="M0 0"></path><path stroke-linecap="round" stroke-linejoin="miter" fill-opacity="0" stroke-miterlimit="4" stroke="rgb(55,105,168)" stroke-opacity="1" stroke-width="10" d="M0 0"></path></g></g><g opacity="1" transform="matrix(-0.5446390509605408,0.838670551776886,-0.838670551776886,-0.5446390509605408,0,0)"><g opacity="1" transform="matrix(1,0,0,1,0,0)"><path fill="rgb(255,255,255)" fill-opacity="1" d="M0 0"></path><path stroke-linecap="round" stroke-linejoin="miter" fill-opacity="0" stroke-miterlimit="4" stroke="rgb(55,105,168)" stroke-opacity="1" stroke-width="10" d="M0 0"></path></g></g><g opacity="1" transform="matrix(0.4771587550640106,0.8788171410560608,-0.8788171410560608,0.4771587550640106,0,0)"><g opacity="1" transform="matrix(1,0,0,1,0,0)"><path fill="rgb(255,255,255)" fill-opacity="1" d="M0 0"></path><path stroke-linecap="round" stroke-linejoin="miter" fill-opacity="0" stroke-miterlimit="4" stroke="rgb(55,105,168)" stroke-opacity="1" stroke-width="10" d="M0 0"></path></g></g><g opacity="1" transform="matrix(1,0,0,1,0,0)"><g opacity="1" transform="matrix(1,0,0,1,0,0)"><path fill="rgb(255,255,255)" fill-opacity="1" d="M0 0"></path><path stroke-linecap="round" stroke-linejoin="miter" fill-opacity="0" stroke-miterlimit="4" stroke="rgb(55,105,168)" stroke-opacity="1" stroke-width="10" d="M0 0"></path></g></g></g><g transform="matrix(0,0.2199999988079071,-0.2199999988079071,0,413.85650634765625,325.1094970703125)" opacity="1" style="display: block;"><g opacity="1" transform="matrix(0.6087614297866821,-0.7933533191680908,0.7933533191680908,0.6087614297866821,0,0)"><g opacity="1" transform="matrix(1,0,0,1,0,0)"><path fill="rgb(255,255,255)" fill-opacity="1" d="M0 0"></path><path stroke-linecap="round" stroke-linejoin="miter" fill-opacity="0" stroke-miterlimit="4" stroke="rgb(55,105,168)" stroke-opacity="1" stroke-width="10" d="M0 0"></path></g></g><g opacity="1" transform="matrix(-0.4067366123199463,-0.9135454297065735,0.9135454297065735,-0.4067366123199463,0,0)"><g opacity="1" transform="matrix(1,0,0,1,0,0)"><path fill="rgb(255,255,255)" fill-opacity="1" d="M0 0"></path><path stroke-linecap="round" stroke-linejoin="miter" fill-opacity="0" stroke-miterlimit="4" stroke="rgb(55,105,168)" stroke-opacity="1" stroke-width="10" d="M0 0"></path></g></g><g opacity="1" transform="matrix(-0.9969173073768616,-0.07845911383628845,0.07845911383628845,-0.9969173073768616,0,0)"><g opacity="1" transform="matrix(1,0,0,1,0,0)"><path fill="rgb(255,255,255)" fill-opacity="1" d="M0 0"></path><path stroke-linecap="round" stroke-linejoin="miter" fill-opacity="0" stroke-miterlimit="4" stroke="rgb(55,105,168)" stroke-opacity="1" stroke-width="10" d="M0 0"></path></g></g><g opacity="1" transform="matrix(-0.5446390509605408,0.838670551776886,-0.838670551776886,-0.5446390509605408,0,0)"><g opacity="1" transform="matrix(1,0,0,1,0,0)"><path fill="rgb(255,255,255)" fill-opacity="1" d="M0 0"></path><path stroke-linecap="round" stroke-linejoin="miter" fill-opacity="0" stroke-miterlimit="4" stroke="rgb(55,105,168)" stroke-opacity="1" stroke-width="10" d="M0 0"></path></g></g><g opacity="1" transform="matrix(0.4771587550640106,0.8788171410560608,-0.8788171410560608,0.4771587550640106,0,0)"><g opacity="1" transform="matrix(1,0,0,1,0,0)"><path fill="rgb(255,255,255)" fill-opacity="1" d="M0 0"></path><path stroke-linecap="round" stroke-linejoin="miter" fill-opacity="0" stroke-miterlimit="4" stroke="rgb(55,105,168)" stroke-opacity="1" stroke-width="10" d="M0 0"></path></g></g><g opacity="1" transform="matrix(1,0,0,1,0,0)"><g opacity="1" transform="matrix(1,0,0,1,0,0)"><path fill="rgb(255,255,255)" fill-opacity="1" d="M0 0"></path><path stroke-linecap="round" stroke-linejoin="miter" fill-opacity="0" stroke-miterlimit="4" stroke="rgb(55,105,168)" stroke-opacity="1" stroke-width="10" d="M0 0"></path></g></g></g><g style="display: block;" transform="matrix(0.1758318692445755,0.13222387433052063,-0.13222387433052063,0.1758318692445755,147.42855834960938,71.03349304199219)" opacity="1"><g opacity="1" transform="matrix(0.6087614297866821,-0.7933533191680908,0.7933533191680908,0.6087614297866821,0,0)"><g opacity="1" transform="matrix(1,0,0,1,0,0)"><path fill="rgb(255,255,255)" fill-opacity="1" d=" M24.784000396728516,0.125 C24.80900001525879,0.125 24.833999633789062,0.125 24.858999252319336,0.125"></path><path stroke-linecap="round" stroke-linejoin="miter" fill-opacity="0" stroke-miterlimit="4" stroke="rgb(47,52,59)" stroke-opacity="1" stroke-width="20" d=" M24.784000396728516,0.125 C24.80900001525879,0.125 24.833999633789062,0.125 24.858999252319336,0.125"></path></g></g><g opacity="1" transform="matrix(-0.4067366123199463,-0.9135454297065735,0.9135454297065735,-0.4067366123199463,0,0)"><g opacity="1" transform="matrix(1,0,0,1,0,0)"><path fill="rgb(255,255,255)" fill-opacity="1" d=" M24.784000396728516,0.125 C24.80900001525879,0.125 24.833999633789062,0.125 24.858999252319336,0.125"></path><path stroke-linecap="round" stroke-linejoin="miter" fill-opacity="0" stroke-miterlimit="4" stroke="rgb(47,52,59)" stroke-opacity="1" stroke-width="20" d=" M24.784000396728516,0.125 C24.80900001525879,0.125 24.833999633789062,0.125 24.858999252319336,0.125"></path></g></g><g opacity="1" transform="matrix(-0.9969173073768616,-0.07845911383628845,0.07845911383628845,-0.9969173073768616,0,0)"><g opacity="1" transform="matrix(1,0,0,1,0,0)"><path fill="rgb(255,255,255)" fill-opacity="1" d=" M24.784000396728516,0.125 C24.80900001525879,0.125 24.833999633789062,0.125 24.858999252319336,0.125"></path><path stroke-linecap="round" stroke-linejoin="miter" fill-opacity="0" stroke-miterlimit="4" stroke="rgb(47,52,59)" stroke-opacity="1" stroke-width="20" d=" M24.784000396728516,0.125 C24.80900001525879,0.125 24.833999633789062,0.125 24.858999252319336,0.125"></path></g></g><g opacity="1" transform="matrix(-0.5446390509605408,0.838670551776886,-0.838670551776886,-0.5446390509605408,0,0)"><g opacity="1" transform="matrix(1,0,0,1,0,0)"><path fill="rgb(255,255,255)" fill-opacity="1" d=" M24.784000396728516,0.125 C24.80900001525879,0.125 24.833999633789062,0.125 24.858999252319336,0.125"></path><path stroke-linecap="round" stroke-linejoin="miter" fill-opacity="0" stroke-miterlimit="4" stroke="rgb(47,52,59)" stroke-opacity="1" stroke-width="20" d=" M24.784000396728516,0.125 C24.80900001525879,0.125 24.833999633789062,0.125 24.858999252319336,0.125"></path></g></g><g opacity="1" transform="matrix(0.4771587550640106,0.8788171410560608,-0.8788171410560608,0.4771587550640106,0,0)"><g opacity="1" transform="matrix(1,0,0,1,0,0)"><path fill="rgb(255,255,255)" fill-opacity="1" d=" M24.784000396728516,0.125 C24.80900001525879,0.125 24.833999633789062,0.125 24.858999252319336,0.125"></path><path stroke-linecap="round" stroke-linejoin="miter" fill-opacity="0" stroke-miterlimit="4" stroke="rgb(47,52,59)" stroke-opacity="1" stroke-width="20" d=" M24.784000396728516,0.125 C24.80900001525879,0.125 24.833999633789062,0.125 24.858999252319336,0.125"></path></g></g><g opacity="1" transform="matrix(1,0,0,1,0,0)"><g opacity="1" transform="matrix(1,0,0,1,0,0)"><path fill="rgb(255,255,255)" fill-opacity="1" d=" M24.784000396728516,0.125 C24.80900001525879,0.125 24.833999633789062,0.125 24.858999252319336,0.125"></path><path stroke-linecap="round" stroke-linejoin="miter" fill-opacity="0" stroke-miterlimit="4" stroke="rgb(47,52,59)" stroke-opacity="1" stroke-width="20" d=" M24.784000396728516,0.125 C24.80900001525879,0.125 24.833999633789062,0.125 24.858999252319336,0.125"></path></g></g></g><g transform="matrix(0,0.2199999988079071,-0.2199999988079071,0,155.4615020751953,80.54450225830078)" opacity="1" style="display: none;"><g opacity="1" transform="matrix(0.6087614297866821,-0.7933533191680908,0.7933533191680908,0.6087614297866821,0,0)"><g opacity="1" transform="matrix(1,0,0,1,0,0)"><path fill="rgb(255,255,255)" fill-opacity="1" d="M0 0"></path><path stroke-linecap="round" stroke-linejoin="miter" fill-opacity="0" stroke-miterlimit="4" stroke="rgb(55,105,168)" stroke-opacity="1" stroke-width="20" d="M0 0"></path></g></g><g opacity="1" transform="matrix(-0.4067366123199463,-0.9135454297065735,0.9135454297065735,-0.4067366123199463,0,0)"><g opacity="1" transform="matrix(1,0,0,1,0,0)"><path fill="rgb(255,255,255)" fill-opacity="1" d="M0 0"></path><path stroke-linecap="round" stroke-linejoin="miter" fill-opacity="0" stroke-miterlimit="4" stroke="rgb(55,105,168)" stroke-opacity="1" stroke-width="20" d="M0 0"></path></g></g><g opacity="1" transform="matrix(-0.9969173073768616,-0.07845911383628845,0.07845911383628845,-0.9969173073768616,0,0)"><g opacity="1" transform="matrix(1,0,0,1,0,0)"><path fill="rgb(255,255,255)" fill-opacity="1" d="M0 0"></path><path stroke-linecap="round" stroke-linejoin="miter" fill-opacity="0" stroke-miterlimit="4" stroke="rgb(55,105,168)" stroke-opacity="1" stroke-width="20" d="M0 0"></path></g></g><g opacity="1" transform="matrix(-0.5446390509605408,0.838670551776886,-0.838670551776886,-0.5446390509605408,0,0)"><g opacity="1" transform="matrix(1,0,0,1,0,0)"><path fill="rgb(255,255,255)" fill-opacity="1" d="M0 0"></path><path stroke-linecap="round" stroke-linejoin="miter" fill-opacity="0" stroke-miterlimit="4" stroke="rgb(55,105,168)" stroke-opacity="1" stroke-width="20" d="M0 0"></path></g></g><g opacity="1" transform="matrix(0.4771587550640106,0.8788171410560608,-0.8788171410560608,0.4771587550640106,0,0)"><g opacity="1" transform="matrix(1,0,0,1,0,0)"><path fill="rgb(255,255,255)" fill-opacity="1" d="M0 0"></path><path stroke-linecap="round" stroke-linejoin="miter" fill-opacity="0" stroke-miterlimit="4" stroke="rgb(55,105,168)" stroke-opacity="1" stroke-width="20" d="M0 0"></path></g></g><g opacity="1" transform="matrix(1,0,0,1,0,0)"><g opacity="1" transform="matrix(1,0,0,1,0,0)"><path fill="rgb(255,255,255)" fill-opacity="1" d="M0 0"></path><path stroke-linecap="round" stroke-linejoin="miter" fill-opacity="0" stroke-miterlimit="4" stroke="rgb(55,105,168)" stroke-opacity="1" stroke-width="20" d="M0 0"></path></g></g></g><g transform="matrix(0.7071067690849304,0.7071067690849304,-0.7071067690849304,0.7071067690849304,254.88363647460938,-50.15043640136719)" opacity="1" style="display: block;"><g opacity="1" transform="matrix(1,0,0,1,0,0)"><path fill="rgb(39,126,241)" fill-opacity="1" d=" M205,5 C205,5 205,5 205,5"></path><path stroke-linecap="round" stroke-linejoin="round" fill-opacity="0" stroke="rgb(55,105,168)" stroke-opacity="1" stroke-width="5" d=" M205,5 C205,5 205,5 205,5"></path></g><g opacity="1" transform="matrix(1.0366699695587158,0,0,0.8461499810218811,0,0)"><path fill="rgb(39,126,241)" fill-opacity="1" d=" M205,5 C205,5 205,5 205,5"></path><path stroke-linecap="round" stroke-linejoin="round" fill-opacity="0" stroke="rgb(55,105,168)" stroke-opacity="1" stroke-width="5" d=" M205,5 C205,5 205,5 205,5"></path></g></g><g transform="matrix(0.7071067690849304,-0.7071067690849304,0.7071067690849304,0.7071067690849304,-54.274436950683594,245.07937622070312)" opacity="1" style="display: block;"><g opacity="1" transform="matrix(1,0,0,1,0,0)"><path fill="rgb(39,126,241)" fill-opacity="1" d=" M205,5 C205,5 205,5 205,5"></path><path stroke-linecap="round" stroke-linejoin="round" fill-opacity="0" stroke="rgb(55,105,168)" stroke-opacity="1" stroke-width="5" d=" M205,5 C205,5 205,5 205,5"></path></g><g opacity="1" transform="matrix(1.0366699695587158,0,0,0.8461499810218811,0,0)"><path fill="rgb(39,126,241)" fill-opacity="1" d=" M205,5 C205,5 205,5 205,5"></path><path stroke-linecap="round" stroke-linejoin="round" fill-opacity="0" stroke="rgb(55,105,168)" stroke-opacity="1" stroke-width="5" d=" M205,5 C205,5 205,5 205,5"></path></g></g><g transform="matrix(-0.7071067690849304,-0.7071067690849304,0.7071067690849304,-0.7071067690849304,240.95538330078125,557.2744140625)" opacity="1" style="display: block;"><g opacity="1" transform="matrix(1,0,0,1,0,0)"><path fill="rgb(39,126,241)" fill-opacity="1" d=" M205,5 C205,5 205,5 205,5"></path><path stroke-linecap="round" stroke-linejoin="round" fill-opacity="0" stroke="rgb(55,105,168)" stroke-opacity="1" stroke-width="5" d=" M205,5 C205,5 205,5 205,5"></path></g><g opacity="1" transform="matrix(1.0366699695587158,0,0,0.8461499810218811,0,0)"><path fill="rgb(39,126,241)" fill-opacity="1" d=" M205,5 C205,5 205,5 205,5"></path><path stroke-linecap="round" stroke-linejoin="round" fill-opacity="0" stroke="rgb(55,105,168)" stroke-opacity="1" stroke-width="5" d=" M205,5 C205,5 205,5 205,5"></path></g></g><g transform="matrix(-0.7071067690849304,0.7071067690849304,-0.7071067690849304,-0.7071067690849304,554.2744140625,262.04461669921875)" opacity="1" style="display: block;"><g opacity="1" transform="matrix(1,0,0,1,0,0)"><path fill="rgb(39,126,241)" fill-opacity="1" d=" M205,5 C205,5 205,5 205,5"></path><path stroke-linecap="round" stroke-linejoin="round" fill-opacity="0" stroke="rgb(55,105,168)" stroke-opacity="1" stroke-width="5" d=" M205,5 C205,5 205,5 205,5"></path></g><g opacity="1" transform="matrix(1.0366699695587158,0,0,0.8461499810218811,0,0)"><path fill="rgb(39,126,241)" fill-opacity="1" d=" M205,5 C205,5 205,5 205,5"></path><path stroke-linecap="round" stroke-linejoin="round" fill-opacity="0" stroke="rgb(55,105,168)" stroke-opacity="1" stroke-width="5" d=" M205,5 C205,5 205,5 205,5"></path></g></g></g><g transform="matrix(7,0,0,7,151.76416015625,275.5)" opacity="1" style="display: none;"><g opacity="1" transform="matrix(1,0,0,1,1.3000000715255737,0)"><g opacity="1" transform="matrix(1,0,0,1,0,0)"><g opacity="1" transform="matrix(1,0,0,1,-1.2480000257492065,-11.449999809265137)"><path stroke-linecap="round" stroke-linejoin="round" fill-opacity="0" stroke="rgb(55,105,168)" stroke-opacity="1" stroke-width="1.5" d=" M-7.5,0 C-7.5,0 7.5,0 7.5,0"></path></g><g opacity="1" transform="matrix(1,0,0,1,-1.2480000257492065,-7.25)"><path stroke-linecap="round" stroke-linejoin="round" fill-opacity="0" stroke="rgb(55,105,168)" stroke-opacity="1" stroke-width="1.5" d=" M-7.5,0 C-7.5,0 7.5,0 7.5,0"></path></g><g opacity="1" transform="matrix(1,0,0,1,-1.2480000257492065,-3.049999952316284)"><path stroke-linecap="round" stroke-linejoin="round" fill-opacity="0" stroke="rgb(55,105,168)" stroke-opacity="1" stroke-width="1.5" d=" M-7.5,0 C-7.5,0 7.5,0 7.5,0"></path></g></g><g opacity="1" transform="matrix(1,0,0,1,0,12.300000190734863)"><g opacity="1" transform="matrix(1,0,0,1,-1.2480000257492065,-11.449999809265137)"><path stroke-linecap="round" stroke-linejoin="round" fill-opacity="0" stroke="rgb(55,105,168)" stroke-opacity="1" stroke-width="1.5" d=" M-7.5,0 C-7.5,0 7.5,0 7.5,0"></path></g><g opacity="1" transform="matrix(1,0,0,1,-1.2480000257492065,-7.25)"><path stroke-linecap="round" stroke-linejoin="round" fill-opacity="0" stroke="rgb(55,105,168)" stroke-opacity="1" stroke-width="1.5" d=" M-7.5,0 C-7.5,0 7.5,0 7.5,0"></path></g><g opacity="1" transform="matrix(1,0,0,1,-1.2480000257492065,-3.049999952316284)"><path stroke-linecap="round" stroke-linejoin="round" fill-opacity="0" stroke="rgb(55,105,168)" stroke-opacity="1" stroke-width="1.5" d=" M-7.5,0 C-7.5,0 7.5,0 7.5,0"></path></g></g></g><g opacity="1" transform="matrix(1,0,0,1,0,0)"><path stroke-linecap="round" stroke-linejoin="round" fill-opacity="0" stroke="rgb(55,105,168)" stroke-opacity="1" stroke-width="1.5" d=" M-9.5,15.5 C-9.5,15.5 -12.5,15.5 -12.5,15.5 C-12.5,15.5 -12.5,-15.5 -12.5,-15.5 C-12.5,-15.5 12.5,-15.5 12.5,-15.5 C12.5,-15.5 12.5,15.5 12.5,15.5 C12.5,15.5 2.499000072479248,15.5 2.499000072479248,15.5 C2.499000072479248,15.5 -9.5,15.5 -9.5,15.5z"></path></g></g><g mask="url(#__lottie_element_23)" style="display: none;"><g transform="matrix(7,0,0,7,875.9882202148438,723.1500244140625)" opacity="1"><g opacity="1" transform="matrix(1,0,0,1,-75.5479965209961,-63.95000076293945)"><path stroke-linecap="round" stroke-linejoin="round" fill-opacity="0" stroke="rgb(55,105,168)" stroke-opacity="1" stroke-width="1.5" d=" M-9.5,15.5 C-9.5,15.5 -12.5,15.5 -12.5,15.5 C-12.5,15.5 -12.5,-15.5 -12.5,-15.5 C-12.5,-15.5 12.5,-15.5 12.5,-15.5 C12.5,-15.5 12.5,15.5 12.5,15.5 C12.5,15.5 2.499000072479248,15.5 2.499000072479248,15.5 C2.499000072479248,15.5 -9.5,15.5 -9.5,15.5z"></path></g><g opacity="1" transform="matrix(1,0,0,1,-75.5479965209961,-70.44999694824219)"><path stroke-linecap="round" stroke-linejoin="round" fill-opacity="0" stroke="rgb(55,105,168)" stroke-opacity="1" stroke-width="1.5" d=" M-7.5,0 C-7.5,0 7.5,0 7.5,0"></path></g><g opacity="1" transform="matrix(1,0,0,1,-79.0479965209961,-74.44999694824219)"><path stroke-linecap="round" stroke-linejoin="round" fill-opacity="0" stroke="rgb(55,105,168)" stroke-opacity="1" stroke-width="1.5" d=" M-4,0 C-4,0 4,0 4,0"></path></g><g opacity="1" transform="matrix(1,0,0,1,-75.5479965209961,-66.44999694824219)"><path stroke-linecap="round" stroke-linejoin="round" fill-opacity="0" stroke="rgb(55,105,168)" stroke-opacity="1" stroke-width="1.5" d=" M-7.5,0 C-7.5,0 7.5,0 7.5,0"></path></g></g></g><g mask="url(#__lottie_element_16)" style="display: none;"><g transform="matrix(7,0,0,7,149.08506774902344,275.5)" opacity="1"><g opacity="1" transform="matrix(1,0,0,1,1.3000000715255737,0)"><g opacity="1" transform="matrix(1,0,0,1,0,0)"><g opacity="1" transform="matrix(1,0,0,1,-1.2480000257492065,-11.449999809265137)"><path stroke-linecap="round" stroke-linejoin="round" fill-opacity="0" stroke="rgb(55,105,168)" stroke-opacity="1" stroke-width="1.5" d=" M-7.5,0 C-7.5,0 7.5,0 7.5,0"></path></g><g opacity="1" transform="matrix(1,0,0,1,-1.2480000257492065,-7.25)"><path stroke-linecap="round" stroke-linejoin="round" fill-opacity="0" stroke="rgb(55,105,168)" stroke-opacity="1" stroke-width="1.5" d=" M-7.5,0 C-7.5,0 7.5,0 7.5,0"></path></g><g opacity="1" transform="matrix(1,0,0,1,-1.2480000257492065,-3.049999952316284)"><path stroke-linecap="round" stroke-linejoin="round" fill-opacity="0" stroke="rgb(55,105,168)" stroke-opacity="1" stroke-width="1.5" d=" M-7.5,0 C-7.5,0 7.5,0 7.5,0"></path></g></g><g opacity="1" transform="matrix(1,0,0,1,0,12.300000190734863)"><g opacity="1" transform="matrix(1,0,0,1,-1.2480000257492065,-11.449999809265137)"><path stroke-linecap="round" stroke-linejoin="round" fill-opacity="0" stroke="rgb(55,105,168)" stroke-opacity="1" stroke-width="1.5" d=" M-7.5,0 C-7.5,0 7.5,0 7.5,0"></path></g><g opacity="1" transform="matrix(1,0,0,1,-1.2480000257492065,-7.25)"><path stroke-linecap="round" stroke-linejoin="round" fill-opacity="0" stroke="rgb(55,105,168)" stroke-opacity="1" stroke-width="1.5" d=" M-7.5,0 C-7.5,0 7.5,0 7.5,0"></path></g><g opacity="1" transform="matrix(1,0,0,1,-1.2480000257492065,-3.049999952316284)"><path stroke-linecap="round" stroke-linejoin="round" fill-opacity="0" stroke="rgb(55,105,168)" stroke-opacity="1" stroke-width="1.5" d=" M-7.5,0 C-7.5,0 7.5,0 7.5,0"></path></g></g></g><g opacity="1" transform="matrix(1,0,0,1,0,0)"><path stroke-linecap="round" stroke-linejoin="round" fill-opacity="0" stroke="rgb(55,105,168)" stroke-opacity="1" stroke-width="1.5" d=" M-9.5,15.5 C-9.5,15.5 -12.5,15.5 -12.5,15.5 C-12.5,15.5 -12.5,-15.5 -12.5,-15.5 C-12.5,-15.5 12.5,-15.5 12.5,-15.5 C12.5,-15.5 12.5,15.5 12.5,15.5 C12.5,15.5 2.499000072479248,15.5 2.499000072479248,15.5 C2.499000072479248,15.5 -9.5,15.5 -9.5,15.5z"></path></g></g></g><g style="display: none;" transform="matrix(7,0,0,7,878.7198486328125,723.1500244140625)" opacity="1"><g opacity="1" transform="matrix(1,0,0,1,-75.5479965209961,-63.95000076293945)"><path stroke-linecap="round" stroke-linejoin="round" fill-opacity="0" stroke="rgb(55,105,168)" stroke-opacity="1" stroke-width="1.5" d=" M-9.5,15.5 C-9.5,15.5 -12.5,15.5 -12.5,15.5 C-12.5,15.5 -12.5,-15.5 -12.5,-15.5 C-12.5,-15.5 12.5,-15.5 12.5,-15.5 C12.5,-15.5 12.5,15.5 12.5,15.5 C12.5,15.5 2.499000072479248,15.5 2.499000072479248,15.5 C2.499000072479248,15.5 -9.5,15.5 -9.5,15.5z"></path></g><g opacity="1" transform="matrix(1,0,0,1,-75.5479965209961,-70.44999694824219)"><path stroke-linecap="round" stroke-linejoin="round" fill-opacity="0" stroke="rgb(55,105,168)" stroke-opacity="1" stroke-width="1.5" d=" M-7.5,0 C-7.5,0 7.5,0 7.5,0"></path></g><g opacity="1" transform="matrix(1,0,0,1,-79.0479965209961,-74.44999694824219)"><path stroke-linecap="round" stroke-linejoin="round" fill-opacity="0" stroke="rgb(55,105,168)" stroke-opacity="1" stroke-width="1.5" d=" M-4,0 C-4,0 4,0 4,0"></path></g><g opacity="1" transform="matrix(1,0,0,1,-75.5479965209961,-66.44999694824219)"><path stroke-linecap="round" stroke-linejoin="round" fill-opacity="0" stroke="rgb(55,105,168)" stroke-opacity="1" stroke-width="1.5" d=" M-7.5,0 C-7.5,0 7.5,0 7.5,0"></path></g></g><g style="display: block;" transform="matrix(7,0,0,7,249.5,275.5)" opacity="1"><g opacity="1" transform="matrix(1,0,0,1,1.3000000715255737,0)"><g opacity="1" transform="matrix(1,0,0,1,0,0)"><g opacity="1" transform="matrix(1,0,0,1,-1.2480000257492065,-11.449999809265137)"><path stroke-linecap="round" stroke-linejoin="round" fill-opacity="0" stroke="rgb(55,105,168)" stroke-opacity="1" stroke-width="1.5" d=" M-7.5,0 C-7.5,0 7.5,0 7.5,0"></path></g><g opacity="1" transform="matrix(1,0,0,1,-1.2480000257492065,-7.25)"><path stroke-linecap="round" stroke-linejoin="round" fill-opacity="0" stroke="rgb(55,105,168)" stroke-opacity="1" stroke-width="1.5" d=" M-7.5,0 C-7.5,0 7.5,0 7.5,0"></path></g><g opacity="1" transform="matrix(1,0,0,1,-1.2480000257492065,-3.049999952316284)"><path stroke-linecap="round" stroke-linejoin="round" fill-opacity="0" stroke="rgb(55,105,168)" stroke-opacity="1" stroke-width="1.5" d=" M-7.5,0 C-7.5,0 7.5,0 7.5,0"></path></g></g><g opacity="1" transform="matrix(1,0,0,1,0,12.300000190734863)"><g opacity="1" transform="matrix(1,0,0,1,-1.2480000257492065,-11.449999809265137)"><path stroke-linecap="round" stroke-linejoin="round" fill-opacity="0" stroke="rgb(55,105,168)" stroke-opacity="1" stroke-width="1.5" d=" M-7.5,0 C-7.5,0 7.5,0 7.5,0"></path></g><g opacity="1" transform="matrix(1,0,0,1,-1.2480000257492065,-7.25)"><path stroke-linecap="round" stroke-linejoin="round" fill-opacity="0" stroke="rgb(55,105,168)" stroke-opacity="1" stroke-width="1.5" d=" M-7.5,0 C-7.5,0 7.5,0 7.5,0"></path></g><g opacity="1" transform="matrix(1,0,0,1,-1.2480000257492065,-3.049999952316284)"><path stroke-linecap="round" stroke-linejoin="round" fill-opacity="0" stroke="rgb(55,105,168)" stroke-opacity="1" stroke-width="1.5" d=" M-7.5,0 C-7.5,0 7.5,0 7.5,0"></path></g></g></g><g opacity="1" transform="matrix(1,0,0,1,0,0)"><path stroke-linecap="round" stroke-linejoin="round" fill-opacity="0" stroke="rgb(55,105,168)" stroke-opacity="1" stroke-width="1.5" d=" M-9.5,15.5 C-9.5,15.5 -12.5,15.5 -12.5,15.5 C-12.5,15.5 -12.5,-15.5 -12.5,-15.5 C-12.5,-15.5 12.5,-15.5 12.5,-15.5 C12.5,-15.5 12.5,15.5 12.5,15.5 C12.5,15.5 2.499000072479248,15.5 2.499000072479248,15.5 C2.499000072479248,15.5 -9.5,15.5 -9.5,15.5z"></path></g></g><g mask="url(#__lottie_element_3)" style="display: block;"><g transform="matrix(7,0,0,7,776.3359985351562,723.1500244140625)" opacity="1"><g opacity="1" transform="matrix(1,0,0,1,-75.5479965209961,-63.95000076293945)"><path stroke-linecap="round" stroke-linejoin="round" fill-opacity="0" stroke="rgb(55,105,168)" stroke-opacity="1" stroke-width="1.5" d=" M-9.5,15.5 C-9.5,15.5 -12.5,15.5 -12.5,15.5 C-12.5,15.5 -12.5,-15.5 -12.5,-15.5 C-12.5,-15.5 12.5,-15.5 12.5,-15.5 C12.5,-15.5 12.5,15.5 12.5,15.5 C12.5,15.5 2.499000072479248,15.5 2.499000072479248,15.5 C2.499000072479248,15.5 -9.5,15.5 -9.5,15.5z"></path></g><g opacity="1" transform="matrix(1,0,0,1,-75.5479965209961,-70.44999694824219)"><path stroke-linecap="round" stroke-linejoin="round" fill-opacity="0" stroke="rgb(55,105,168)" stroke-opacity="1" stroke-width="1.5" d=" M-7.5,0 C-7.5,0 7.5,0 7.5,0"></path></g><g opacity="1" transform="matrix(1,0,0,1,-79.0479965209961,-74.44999694824219)"><path stroke-linecap="round" stroke-linejoin="round" fill-opacity="0" stroke="rgb(55,105,168)" stroke-opacity="1" stroke-width="1.5" d=" M-4,0 C-4,0 4,0 4,0"></path></g><g opacity="1" transform="matrix(1,0,0,1,-75.5479965209961,-66.44999694824219)"><path stroke-linecap="round" stroke-linejoin="round" fill-opacity="0" stroke="rgb(55,105,168)" stroke-opacity="1" stroke-width="1.5" d=" M-7.5,0 C-7.5,0 7.5,0 7.5,0"></path></g></g></g></g></svg>